<svg xmlns="http://www.w3.org/2000/svg" version="1.1" xmlns:xlink="http://www.w3.org/1999/xlink" xmlns:svgjs="http://svgjs.dev/svgjs" width="3840" height="2160" preserveAspectRatio="none" viewBox="0 0 3840 2160"><g mask="url(&quot;#SvgjsMask1103&quot;)" fill="none"><path d="M3904 2160L0 2160 L0 1713.69Q151.21 1544.9, 320 1696.12Q326.67 1510.79, 512 1517.46Q619.55 1433.01, 704 1540.56Q878.29 1522.85, 896 1697.13Q986.51 1595.64, 1088 1686.16Q1142.7 1548.87, 1280 1603.57Q1405.22 1536.79, 1472 1662.01Q1602.96 1600.97, 1664 1731.93Q1667.38 1543.32, 1856 1546.7Q1938.63 1437.34, 2048 1519.97Q2208.99 1488.96, 2240 1649.95Q2375.67 1465.62, 2560 1601.29Q2700.32 1421.61, 2880 1561.92Q3065.8 1427.72, 3200 1613.53Q3351.86 1573.39, 3392 1725.26Q3448.13 1589.39, 3584 1645.52Q3708.03 1449.55, 3904 1573.58z" fill="#182f5d"></path><path d="M4032 2160L0 2160 L0 1688.44Q107.93 1604.37, 192 1712.3Q429.44 1629.74, 512 1867.18Q655.31 1690.49, 832 1833.81Q885.11 1694.91, 1024 1748.02Q1131.45 1663.47, 1216 1770.92Q1403.1 1638.02, 1536 1825.12Q1644.78 1741.89, 1728 1850.67Q1819.89 1622.57, 2048 1714.46Q2231.87 1578.33, 2368 1762.2Q2553.05 1627.25, 2688 1812.3Q2838.24 1642.54, 3008 1792.78Q3092.8 1685.58, 3200 1770.38Q3337.14 1587.53, 3520 1724.67Q3625.64 1638.32, 3712 1743.96Q3937.24 1649.2, 4032 1874.43z" fill="#25467d"></path><path d="M3968 2160L0 2160 L0 1975.35Q69.68 1853.03, 192 1922.7Q336.66 1875.37, 384 2020.03Q465.26 1781.29, 704 1862.55Q908.89 1747.44, 1024 1952.34Q1211.53 1819.87, 1344 2007.4Q1454.94 1798.34, 1664 1909.28Q1740.74 1794.02, 1856 1870.76Q1935.69 1758.45, 2048 1838.15Q2309.68 1779.83, 2368 2041.51Q2415.49 1896.99, 2560 1944.48Q2607.63 1800.11, 2752 1847.74Q2874.73 1778.47, 2944 1901.2Q3031.7 1796.9, 3136 1884.61Q3314.97 1743.58, 3456 1922.55Q3609.79 1756.34, 3776 1910.13Q3902.03 1844.16, 3968 1970.18z" fill="#356cb1"></path><path d="M4032 2160L0 2160 L0 2047.59Q170.61 1898.2, 320 2068.8Q519.45 1948.26, 640 2147.71Q728.01 2043.72, 832 2131.72Q978.04 1957.76, 1152 2103.79Q1355.37 1987.16, 1472 2190.53Q1625.49 2024.02, 1792 2177.51Q1896.2 1961.72, 2112 2065.92Q2247.5 1881.42, 2432 2016.92Q2576.53 1969.45, 2624 2113.98Q2729.95 2027.93, 2816 2133.87Q2924.81 1922.68, 3136 2031.49Q3224.36 1927.85, 3328 2016.21Q3481.14 1977.36, 3520 2130.5Q3646.32 2064.82, 3712 2191.15Q3833.1 1992.25, 4032 2113.35z" fill="white"></path></g><defs><mask id="SvgjsMask1103"><rect width="3840" height="2160" fill="#ffffff"></rect></mask></defs></svg>